<?xml version="1.0" encoding="utf-8"?>
<!-- Generator: Adobe Illustrator 25.2.1, SVG Export Plug-In . SVG Version: 6.00 Build 0)  -->
<svg version="1.1" id="Layer_1" xmlns="http://www.w3.org/2000/svg" xmlns:xlink="http://www.w3.org/1999/xlink" x="0px" y="0px"
	 viewBox="0 0 1280 1024" style="enable-background:new 0 0 1280 1024;" xml:space="preserve">
<style type="text/css">
	.st0{fill:#FFFFFF;}
	.st1{fill:#C67D43;}
	.st2{fill:#427D6E;}
	.st3{fill:#B5651D;}
	.st4{fill:#AD6B40;}
	.st5{font-family:'BodoniSvtyTwoSCITCTT-Book';}
	.st6{font-size:63.4646px;}
	.st7{fill:none;}
	.st8{fill:#2F4F4F;}
	.st9{fill:#191970;}
	.st10{fill:#F8F0C6;}
	.st11{fill:#483D8B;}
	.st12{fill:#000050;}
	.st13{fill:#D2691E;}
	.st14{fill:#4F0055;}
	.st15{fill:#764318;}
	.st16{fill:#556B2F;}
	.st17{fill:#C5B078;}
	.st18{fill:#F8FADB;}
	.st19{fill:#B4A5FB;}
	.st20{fill:#2F4F00;}
	.st21{fill:#FFEEE0;}
	.st22{fill:#FFD700;}
</style>
<g>
	<polygon class="st0" points="537.71,600.9 695.5,348.83 853.29,600.9 	"/>
	<path d="M695.5,351.65L850.58,599.4l-310.17,0L695.5,351.65 M695.5,346L535,602.4l321,0L695.5,346L695.5,346z"/>
</g>
<g>
	<polygon class="st0" points="322.88,600.5 505.1,304.36 687.32,600.5 	"/>
	<path d="M505.1,307.22L684.63,599H325.57L505.1,307.22 M505.1,301.5L320.2,602H690L505.1,301.5L505.1,301.5z"/>
</g>
<g>
	<polygon class="st0" points="354.58,716.92 360.88,719.44 355.54,723.64 	"/>
	<path d="M355.2,717.71l4.69,1.88l-3.97,3.12L355.2,717.71 M353.96,716.13l1.21,8.43l6.7-5.27L353.96,716.13L353.96,716.13z"/>
</g>
<g>
	<rect x="362.5" y="536.5" class="st1" width="109" height="40"/>
	<path d="M471,537v39H363v-39H471 M472,536H362v41h110V536L472,536z"/>
</g>
<g>
	<rect x="467.5" y="378.5" class="st2" width="37" height="223"/>
	<path d="M504,379v222h-36V379H504 M505,378h-38v224h38V378L505,378z"/>
</g>
<g>
	<rect x="370.5" y="524.5" class="st3" width="96" height="11"/>
	<path d="M466,525v10h-95v-10H466 M467,524h-97v12h97V524L467,524z"/>
</g>
<g>
	<polygon class="st4" points="395.51,509.5 466.5,509.5 466.5,524.75 395.97,525 	"/>
	<path d="M466,510v14.25l-69.55,0.25l-0.21-7.28l-0.21-7.22H466 M467,509h-72c0.16,5.5,0.32,11,0.48,16.5
		c23.84-0.08,47.68-0.17,71.52-0.25V509L467,509z"/>
</g>
<text transform="matrix(1.6467 0 0 1 411.6699 670.2148)" class="st5 st6">SAHARA</text>
<path class="st7" d="M389.81,525.59c7.65-8.88,7.37-23.54-0.62-32.12"/>
<path class="st7" d="M370.46,547.12c2.21-3.56,4.47-7.28,4.89-11.44c0.42-4.17-1.59-8.9-5.58-10.18"/>
<g>
	<path class="st8" d="M505.5,601.5v-232h29v225.47c-0.21,0.79-0.21,1.58,0,2.36v4.16H505.5z"/>
	<path d="M534,370v224.91c-0.21,0.83-0.21,1.67,0,2.49v3.6h-28V370H534 M535,369h-30v233h30v-4.73c-0.19-0.7-0.21-1.45,0-2.23V369
		L535,369z"/>
</g>
<g>
	<rect x="535.5" y="394.5" class="st9" width="27" height="207"/>
	<path d="M562,395v206h-26V395H562 M563,394h-28v208h28V394L563,394z"/>
</g>
<g>
	<rect x="563.5" y="441.5" class="st8" width="28" height="160"/>
	<path d="M591,442v159h-27V442H591 M592,441h-29v161h29V441L592,441z"/>
</g>
<g>
	<rect x="592.5" y="479.5" class="st10" width="24" height="122"/>
	<path d="M616,480v121h-23V480H616 M617,479h-25v123h25V479L617,479z"/>
</g>
<g>
	<rect x="690.5" y="404.5" class="st11" width="35" height="197"/>
	<path d="M725,405v196h-34V405H725 M726,404h-36v198h36V404L726,404z"/>
</g>
<g>
	<rect x="726.5" y="461.5" class="st12" width="36" height="140"/>
	<path d="M762,462v139h-35V462H762 M763,461h-37v141h37V461L763,461z"/>
</g>
<g>
	
		<rect x="780.9" y="493.71" transform="matrix(0.9339 -0.3574 0.3574 0.9339 -143.0336 319.6714)" class="st13" width="24.81" height="106.16"/>
	<path d="M785.62,493.43l37.59,98.21l-22.23,8.51l-37.59-98.21L785.62,493.43 M786.2,492.14l-24.1,9.22l38.3,100.08l24.1-9.22
		L786.2,492.14L786.2,492.14z"/>
</g>
<g>
	<rect x="669.5" y="432.5" class="st14" width="20" height="169"/>
	<path d="M689,433v168h-19V433H689 M690,432h-21v170h21V432L690,432z"/>
</g>
<g>
	<rect x="341.5" y="573.5" class="st15" width="125" height="28"/>
	<path d="M466,574v27H342v-27H466 M467,573H341v29h126V573L467,573z"/>
</g>
<g>
	<rect x="617.5" y="474.5" class="st16" width="30" height="127"/>
	<path d="M647,475v126h-29V475H647 M648,474h-31v128h31V474L648,474z"/>
</g>
<g>
	<rect x="648.5" y="441.5" class="st17" width="20" height="160"/>
	<path d="M668,442v159h-19V442H668 M669,441h-21v161h21V441L669,441z"/>
</g>
<g>
	
		<rect x="765.43" y="503.12" transform="matrix(0.9339 -0.3574 0.3574 0.9339 -129.1812 311.2639)" class="st18" width="24.14" height="4"/>
	<path d="M787.77,499.58l1.07,2.8l-21.61,8.27l-1.07-2.8L787.77,499.58 M788.35,498.29l-23.48,8.99l1.79,4.67l23.48-8.99
		L788.35,498.29L788.35,498.29z"/>
</g>
<g>
	
		<rect x="768.18" y="509.79" transform="matrix(0.9339 -0.3574 0.3574 0.9339 -131.4716 312.751)" class="st18" width="24.35" height="4.52"/>
	<path d="M790.64,506.23l1.26,3.28l-21.81,8.35l-1.26-3.28L790.64,506.23 M791.21,504.94L767.54,514l1.97,5.15l23.68-9.06
		L791.21,504.94L791.21,504.94z"/>
</g>
<g>
	<rect x="505.5" y="386.5" class="st18" width="29" height="3"/>
	<path d="M534,387v2h-28v-2H534 M535,386h-30v4h30V386L535,386z"/>
</g>
<g>
	<rect x="505.5" y="395.5" class="st18" width="29" height="3"/>
	<path d="M534,396v2h-28v-2H534 M535,395h-30v4h30V395L535,395z"/>
</g>
<g>
	<rect x="505.5" y="404.5" class="st18" width="29" height="3"/>
	<path d="M534,405v2h-28v-2H534 M535,404h-30v4h30V404L535,404z"/>
</g>
<g>
	<rect x="690.5" y="420.5" class="st18" width="35" height="2"/>
	<path d="M725,421v1h-34v-1H725 M726,420h-36v3h36V420L726,420z"/>
</g>
<g>
	<rect x="690.5" y="472.5" class="st18" width="35" height="2"/>
	<path d="M725,473v1h-34v-1H725 M726,472h-36v3h36V472L726,472z"/>
</g>
<g>
	<rect x="690.5" y="429.5" class="st19" width="35" height="35"/>
	<path d="M725,430v34h-34v-34H725 M726,429h-36v36h36V429L726,429z"/>
</g>
<g>
	<rect x="505.5" y="587.5" class="st18" width="29" height="3"/>
	<path d="M534,588v2h-28v-2H534 M535,587h-30v4h30V587L535,587z"/>
</g>
<g>
	<rect x="505.5" y="578.5" class="st18" width="29" height="3"/>
	<path d="M534,579v2h-28v-2H534 M535,578h-30v4h30V578L535,578z"/>
</g>
<g>
	<rect x="505.5" y="569.5" class="st18" width="29" height="3"/>
	<path d="M534,570v2h-28v-2H534 M535,569h-30v4h30V569L535,569z"/>
</g>
<g>
	<rect x="564.5" y="455.5" class="st20" width="26" height="2"/>
	<path d="M590,456v1h-25v-1H590 M591,455h-27v3h27V455L591,455z"/>
</g>
<g>
	<rect x="564.5" y="499.5" class="st20" width="26" height="2"/>
	<path d="M590,500v1h-25v-1H590 M591,499h-27v3h27V499L591,499z"/>
</g>
<g>
	<rect x="563.5" y="588.5" class="st20" width="28" height="2"/>
	<path d="M591,589v1h-27v-1H591 M592,588h-29v3h29V588L592,588z"/>
</g>
<g>
	<rect x="564.5" y="544.5" class="st20" width="27" height="2"/>
	<path d="M591,545v1h-26v-1H591 M592,544h-28v3h28V544L592,544z"/>
</g>
<g>
	<rect x="369.5" y="536.5" class="st21" width="3" height="37"/>
	<path d="M372,537v36h-2v-36H372 M373,536h-4v38h4V536L373,536z"/>
</g>
<g>
	<rect x="376.5" y="536.5" class="st21" width="3" height="37"/>
	<path d="M379,537v36h-2v-36H379 M380,536h-4v38h4V536L380,536z"/>
</g>
<g>
	<rect x="343" y="542" class="st22" width="1" height="0"/>
	<polygon points="344,542 343,542 344,542 	"/>
</g>
</svg>
FFF;}
	.st1{fill:#C67D43;}
	.st2{fill:#427D6E;}
	.st3{fill:#B5651D;}
	.st4{fill:#AD6B40;}
	.st5{font-family:'BodoniSvtyTwoSCITCTT-Book';}
	.st6{font-size:63.4646px;}
	.st7{fill:none;}
	.st8{fill:#2F4F4F;}
	.st9{fill:#191970;}
	.st10{fill:#F8F0C6;}
	.st11{fill:#483D8B;}
	.st12{fill:#000050;}
	.st13{fill:#D2691E;}
	.st14{fill:#4F0055;}
	.st15{fill:#764318;}
	.st16{fill:#556B2F;}
	.st17{fill:#C5B078;}
	.st18{fill:#F8FADB;}
	.st19{fill:#B4A5FB;}
	.st20{fill:#2F4F00;}
	.st21{fill:#FFEEE0;}
	.st22{fill:#FFD700;}
</style>
<g>
	<polygon class="st0" points="537.71,600.9 695.5,348.83 853.29,600.9 	"/>
	<path d="M695.5,351.65L850.58,599.4l-310.17,0L695.5,351.65 M695.5,346L535,602.4l321,0L695.5,346L695.5,346z"/>
</g>
<g>
	<polygon class="st0" points="322.88,600.5 505.1,304.36 687.32,600.5 	"/>
	<path d="M505.1,307.22L684.63,599H325.57L505.1,307.22 M505.1,301.5L320.2,602H690L505.1,301.5L505.1,301.5z"/>
</g>
<g>
	<polygon class="st0" points="354.58,716.92 360.88,719.44 355.54,723.64 	"/>
	<path d="M355.2,717.71l4.69,1.88l-3.97,3.12L355.2,717.71 M353.96,716.13l1.21,8.43l6.7-5.27L353.96,716.13L353.96,716.13z"/>
</g>
<g>
	<rect x="362.5" y="536.5" class="st1" width="109" height="40"/>
	<path d="M471,537v39H363v-39H471 M472,536H362v41h110V536L472,536z"/>
</g>
<g>
	<rect x="467.5" y="378.5" class="st2" width="37" height="223"/>
	<path d="M504,379v222h-36V379H504 M505,378h-38v224h38V378L505,378z"/>
</g>
<g>
	<rect x="370.5" y="524.5" class="st3" width="96" height="11"/>
	<path d="M466,525v10h-95v-10H466 M467,524h-97v12h97V524L467,524z"/>
</g>
<g>
	<polygon class="st4" points="395.51,509.5 466.5,509.5 466.5,524.75 395.97,525 	"/>
	<path d="M466,510v14.25l-69.55,0.25l-0.21-7.28l-0.21-7.22H466 M467,509h-72c0.16,5.5,0.32,11,0.48,16.5
		c23.84-0.08,47.68-0.17,71.52-0.25V509L467,509z"/>
</g>
<text transform="matrix(1.6467 0 0 1 411.6699 670.2148)" class="st5 st6">SAHARA</text>
<path class="st7" d="M389.81,525.59c7.65-8.88,7.37-23.54-0.62-32.12"/>
<path class="st7" d="M370.46,547.12c2.21-3.56,4.47-7.28,4.89-11.44c0.42-4.17-1.59-8.9-5.58-10.18"/>
<g>
	<path class="st8" d="M505.5,601.5v-232h29v225.47c-0.21,0.79-0.21,1.58,0,2.36v4.16H505.5z"/>
	<path d="M534,370v224.91c-0.21,0.83-0.21,1.67,0,2.49v3.6h-28V370H534 M535,369h-30v233h30v-4.73c-0.19-0.7-0.21-1.45,0-2.23V369
		L535,369z"/>
</g>
<g>
	<rect x="535.5" y="394.5" class="st9" width="27" height="207"/>
	<path d="M562,395v206h-26V395H562 M563,394h-28v208h28V394L563,394z"/>
</g>
<g>
	<rect x="563.5" y="441.5" class="st8" width="28" height="160"/>
	<path d="M591,442v159h-27V442H591 M592,441h-29v161h29V441L592,441z"/>
</g>
<g>
	<rect x="592.5" y="479.5" class="st10" width="24" height="122"/>
	<path d="M616,480v121h-23V480H616 M617,479h-25v123h25V479L617,479z"/>
</g>
<g>
	<rect x="690.5" y="404.5" class="st11" width="35" height="197"/>
	<path d="M725,405v196h-34V405H725 M726,404h-36v198h36V404L726,404z"/>
</g>
<g>
	<rect x="726.5" y="461.5" class="st12" width="36" height="140"/>
	<path d="M762,462v139h-35V462H762 M763,461h-37v141h37V461L763,461z"/>
</g>
<g>
	
		<rect x="780.9" y="493.71" transform="matrix(0.9339 -0.3574 0.3574 0.9339 -143.0336 319.6714)" class="st13" width="24.81" height="106.16"/>
	<path d="M785.62,493.43l37.59,98.21l-22.23,8.51l-37.59-98.21L785.62,493.43 M786.2,492.14l-24.1,9.22l38.3,100.08l24.1-9.22
		L786.2,492.14L786.2,492.14z"/>
</g>
<g>
	<rect x="669.5" y="432.5" class="st14" width="20" height="169"/>
	<path d="M689,433v168h-19V433H689 M690,432h-21v170h21V432L690,432z"/>
</g>
<g>
	<rect x="341.5" y="573.5" class="st15" width="125" height="28"/>
	<path d="M466,574v27H342v-27H466 M467,573H341v29h126V573L467,573z"/>
</g>
<g>
	<rect x="617.5" y="474.5" class="st16" width="30" height="127"/>
	<path d="M647,475v126h-29V475H647 M648,474h-31v128h31V474L648,474z"/>
</g>
<g>
	<rect x="648.5" y="441.5" class="st17" width="20" height="160"/>
	<path d="M668,442v159h-19V442H668 M669,441h-21v161h21V441L669,441z"/>
</g>
<g>
	
		<rect x="765.43" y="503.12" transform="matrix(0.9339 -0.3574 0.3574 0.9339 -129.1812 311.2639)" class="st18" width="24.14" height="4"/>
	<path d="M787.77,499.58l1.07,2.8l-21.61,8.27l-1.07-2.8L787.77,499.58 M788.35,498.29l-23.48,8.99l1.79,4.67l23.48-8.99
		L788.35,498.29L788.35,498.29z"/>
</g>
<g>
	
		<rect x="768.18" y="509.79" transform="matrix(0.9339 -0.3574 0.3574 0.9339 -131.4716 312.751)" class="st18" width="24.35" height="4.52"/>
	<path d="M790.64,506.23l1.26,3.28l-21.81,8.35l-1.26-3.28L790.64,506.23 M791.21,504.94L767.54,514l1.97,5.15l23.68-9.06
		L791.21,504.94L791.21,504.94z"/>
</g>
<g>
	<rect x="505.5" y="386.5" class="st18" width="29" height="3"/>
	<path d="M534,387v2h-28v-2H534 M535,386h-30v4h30V386L535,386z"/>
</g>
<g>
	<rect x="505.5" y="395.5" class="st18" width="29" height="3"/>
	<path d="M534,396v2h-28v-2H534 M535,395h-30v4h30V395L535,395z"/>
</g>
<g>
	<rect x="505.5" y="404.5" class="st18" width="29" height="3"/>
	<path d="M534,405v2h-28v-2H534 M535,404h-30v4h30V404L535,404z"/>
</g>
<g>
	<rect x="690.5" y="420.5" class="st18" width="35" height="2"/>
	<path d="M725,421v1h-34v-1H725 M726,420h-36v3h36V420L726,420z"/>
</g>
<g>
	<rect x="690.5" y="472.5" class="st18" width="35" height="2"/>
	<path d="M725,473v1h-34v-1H725 M726,472h-36v3h36V472L726,472z"/>
</g>
<g>
	<rect x="690.5" y="429.5" class="st19" width="35" height="35"/>
	<path d="M725,430v34h-34v-34H725 M726,429h-36v36h36V429L726,429z"/>
</g>
<g>
	<rect x="505.5" y="587.5" class="st18" width="29" height="3"/>
	<path d="M534,588v2h-28v-2H534 M535,587h-30v4h30V587L535,587z"/>
</g>
<g>
	<rect x="505.5" y="578.5" class="st18" width="29" height="3"/>
	<path d="M534,579v2h-28v-2H534 M535,578h-30v4h30V578L535,578z"/>
</g>
<g>
	<rect x="505.5" y="569.5" class="st18" width="29" height="3"/>
	<path d="M534,570v2h-28v-2H534 M535,569h-30v4h30V569L535,569z"/>
</g>
<g>
	<rect x="564.5" y="455.5" class="st20" width="26" height="2"/>
	<path d="M590,456v1h-25v-1H590 M591,455h-27v3h27V455L591,455z"/>
</g>
<g>
	<rect x="564.5" y="499.5" class="st20" width="26" height="2"/>
	<path d="M590,500v1h-25v-1H590 M591,499h-27v3h27V499L591,499z"/>
</g>
<g>
	<rect x="563.5" y="588.5" class="st20" width="28" height="2"/>
	<path d="M591,589v1h-27v-1H591 M592,588h-29v3h29V588L592,588z"/>
</g>
<g>
	<rect x="564.5" y="544.5" class="st20" width="27" height="2"/>
	<path d="M591,545v1h-26v-1H591 M592,544h-28v3h28V544L592,544z"/>
</g>
<g>
	<rect x="369.5" y="536.5" class="st21" width="3" height="37"/>
	<path d="M372,537v36h-2v-36H372 M373,536h-4v38h4V536L373,536z"/>
</g>
<g>
	<rect x="376.5" y="536.5" class="st21" width="3" height="37"/>
	<path d="M379,537v36h-2v-36H379 M380,536h-4v38h4V536L380,536z"/>
</g>
<g>
	<rect x="343" y="542" class="st22" width="1" height="0"/>
	<polygon points="344,542 343,542 344,542 	"/>
</g>
</svg>
